<?xml version='1.0' encoding='utf-8'?>
<svg xmlns="http://www.w3.org/2000/svg" enable-background="new 0 0 1600.674 1782.408" version="1.1" viewBox="0 0 1600.674 1782.408">
<path d="m1505.3 364.38c-12.18-20.065-30.45-33.51-51.68-43.01-5.022-2.247-10.131-4.069-13.501-8.895-1.679-2.404-3.973-4.39-6.063-6.492-12.016-12.083-26.116-20.756-42.283-26.206-14.129-4.763-28.885-6.009-43.488-8.064-3.16-0.445-5.023-1.481-6.682-4.143-7.636-12.247-17.127-22.655-28.844-31.368-16.623-12.36-34.684-20.843-55.074-24.446-4.626-0.818-9.344-1.751-13.213-4.595-4.287-3.152-8.991-5.426-13.717-7.782-18.755-9.353-38.738-13.355-59.502-14.463-9.27-0.495-18.036 1.89-26.879 3.857-4.007 0.891-6.602 0.263-9.174-3.314-5.022-6.983-11.241-12.659-18.792-17.239-21.312-12.926-43.957-22.138-68.891-23.648-13.154-0.797-25.403-4.202-37.373-8.661-11.36-4.232-22.726-7.521-34.815-8.342-6.803-0.462-13.612-1.231-20.39-1.601-12.434-0.679-24.936-1.201-37.383 0.687-6.329 0.96-11.78-0.577-15.548-6.526-4.027-6.357-9.991-11.051-16.405-14.523-11.663-6.313-24.247-10.506-37.694-10.408-9.384 0.069-19.027-0.242-27.729 4.312-8.838 4.626-16.524 5.072-26.157-0.245-18.552-10.24-38.907-9.835-58.889-3.764-13.789 4.19-25.365 12.063-33.764 24.094-2.418 3.464-4.81 4.752-8.8 1.537-6.407-5.163-14.207-8.062-22.092-9.601-13.776-2.688-27.621-2.817-41.679-0.274-11.132 2.013-21.351 5.224-30.716 11.587-6.024 4.093-12.774 5.655-20.285 5.082-22.507-1.718-43.504 4.431-63.424 14.134-10.03 4.885-20.206 10.089-27.124 19.556-3.47 4.748-8.029 5.95-13.746 4.573-10.955-2.639-22.161-2.849-34.554-2.721-18.612-1.288-36.917 3.927-54.79 12.003-8.494 3.838-15.656 10.314-25.623 11.408-17.168 1.884-32.817 8.668-47.852 16.924-7.898 4.337-15.558 9.107-22.505 14.787-5.471 4.473-11.157 8.935-14.238 15.771-2.177 4.83-6.521 6.24-11.604 6.554-6.03 0.372-12.005 1.165-17.995 2.342-7.062 1.387-13.846 3.655-20.803 5.173-8.175 1.784-15.935 4.324-23.418 7.941-8.329 4.026-16.477 8.502-22.809 15.285-8.216 8.801-17.711 14.644-28.994 19.33-15.922 6.613-30.006 16.949-41.804 29.97-9.198 10.152-16.94 21.245-20.829 34.433-5.344 18.12-5.238 36.278 2.009 54.016 1.526 3.735 1.685 7.055-0.091 10.869-3.103 6.659-2.837 13.21 2.116 19.202 1.416 1.713 2.289 3.767 2.848 6.095 2.627 10.94 5.156 21.889 9.591 32.347 4.557 10.745 11.701 20.376 13.798 32.205 0.407 2.295 1.073 4.566 2.485 6.788 4.767 7.504 8.833 15.448 13.422 23.071 5.403 8.974 7.608 19.211 11.681 28.709 2.749 6.411 6.741 10.69 13.858 11.865 2.291 0.378 4.593 0.703 6.897 1.025l548.09 621.85c0.189 9.031 0.371 18.061 0.557 27.092 0.21 10.208 0.396 20.604-2.479 30.401-1.319 4.495-3.286 8.887-3.5 13.567-0.134 2.925 0.783 5.089 2.008 7.045l-41.933 71.477c-0.259 6e-3 -0.521 0.016-0.803 0.046-2.373 0.255-3.558 2.101-4.623 3.68-2.761 4.091-5.13 8.416-8.456 12.152-5.529 6.209-8.57 14.107-13.674 20.649-2.614 3.351-0.364 13.895 3.305 15.32 5.663 2.199 8.455 7.154 12.21 11.275 3.008 3.301 3.265 8.282 6.511 11.043 4.216 3.586 9.448 5.968 14.315 8.531 9.095 4.79 19.103 6.28 29.443 4.283 2.957-0.571 5.954-0.675 8.906 0.669 2.185 0.995 2.941 1.772 2.451 4.591-1.06 6.098-1.19 12.372-1.761 18.54-0.649 7.005-0.02 14.173-2.89 21.116-1.304 3.155-3.922 4.343-5.502 6.849-4.733 7.508-5.095 15.707-5.081 24.118 4e-3 2.667 0.947 3.981 3.651 3.678 4.621-0.517 9.289-0.7 13.611-2.833 2.424-1.197 4.578-1.335 6.749 1.307 4.688 5.707 5.327 11.284 0.785 17.168-1.399 1.812-2.05 3.459-1.987 5.636 0.14 4.859 0.798 8.974 4.041 13.465 4.121 5.705 5.469 12.894 5.473 20.722 7e-3 14.518 1.417 29.09 0.637 43.621-0.816 15.194 4.236 28.778 10.268 42.12 3.38 7.476 8.283 14.08 8.548 22.965 0.198 6.616 3.379 8.168 10.05 7.218 10.226-1.457 11.637-3.507 9.966-14.004-0.419-2.63-0.704-5.199-2.123-7.579-6.232-10.448-2.987-24.386-2.657-35.828 0.519-18.013-4.303-38.021-1.062-55.502 1.444-7.791 3.484-15.517 3.744-23.535 0.077-2.362 1.819-5.037 3.718-5.679 1.142-0.386 4.58 2.219 4.902 3.883 1.197 6.187 5.144 11.235 6.3 17.475 1.913 10.33 4.881 19.493 4.711 29.91-0.131 8.026-0.262 16.051-0.392 24.077-0.095 5.854-2.532 16.333 1.231 21.277 0.683 0.898 0.724 2.69 0.395 3.886-1.868 6.802-1.132 13.978-3.976 20.745-3.904 9.291-1.01 14.391 8.604 16.544 6.642 1.487 10.306 0.563 10.959-7.78 1.091-13.939 10.656-27.289 13.974-41.209 2.604-10.925 3.875-22.17 3.74-33.401-0.133-11.084-4.693-21.212-4.849-32.132-0.112-7.838 6.899-14.979 9.898-21.982 5.158-12.046 7.43-25.187 7.888-38.282 0.377-10.767-0.738-21.498-1.031-32.316-0.329-12.133-5.301-18.785-9.465-29.281-1.331-3.354 1.041-5.891 4.283-4.492 2.744 1.183 5.631 1.152 8.252 1.464 9.225 1.098 17.951 5.855 27.576 3.892 5.328-1.087 11.323-0.668 15.46-4.774 3.51-3.483 7.789-5.165 11.891-7.495 4.586-2.604 11.28-2.765 12.969-9.488 0.255-1.014 1.403-1.287 2.346-1.303 3.63-0.06 6.669-2.81 10.49-2.147 1.801 0.312 2.355-0.971 2.94-2.656 2.544-7.325 0.487-14.282-2.049-20.875-3.431-8.923-11.341-15.576-13.275-25.501-0.345-1.772-2.655-4.487-5.75-4.393-1.368 0.041-3.049-0.395-4.019 0.646l-47.577-84.019c3.102 0.735 6.736-1.414 8.135-4.459 1.637-3.565 0.997-7.742-0.069-11.519-6.431-22.791-3.342-46.779 0.561-70.183l7.5-12.386 545.88-579.3c6.317 2.343 10.616 0.611 15.401-3.95 2.559-2.439 5.774-3.984 9.034-4.38 5.342-0.649 8.506-3.715 11.122-7.836 2.019-3.181 3.998-6.262 6.889-8.885 10.721-9.728 21.257-19.685 29.392-31.809 10.062-14.997 16.548-31.31 18.06-49.46 0.214-2.566 0.885-5.083 1.622-7.634 2.599-8.996 6.182-17.689 6.586-27.387 0.423-10.181-0.28-20.624 2.969-30.508 3.35-10.192 3.974-20.846 4.431-31.27 0.692-15.852-5.404-30.49-13.449-43.743zm-371.68 90.989c10.172 1.736 20.3 2.032 30.397-9e-3 11.042-2.232 21.34-6.33 30.708-12.762 4.299-2.952 6.394-2.05 8.042 2.827 1.269 3.755 2.492 7.537 3.493 11.371 3.676 14.086 12.11 24.973 23.11 33.99 7.116 5.833 16.53 6.963 24.536 11.129 7.064 3.676 15.618 4.676 21.442 10.485l-409.82 676.76-2.532 2.687 237.11-749.76c2.017 0.532 3.966 1.249 5.777 2.307 8.723 5.097 17.664 9.259 27.733 10.978zm-187.33-36.83c12.938 0.106 25.662-1.055 37.846-5.873 10.082-3.987 18.974-9.678 26.633-17.414 3.914-3.953 6.824-3.162 8.806 2.122 0.934 2.488 1.981 4.84 3.3 7.163 5.134 9.038 12.424 15.808 20.925 21.643 7.528 5.168 15.756 8.898 24.328 11.327 7.196 2.038 14.972 1.996 22.478 2.979 2.417 0.316 4.874 0.611 7.273 1.088l-234.88 742.68c0.442-2.732 0.864-5.449 1.248-8.148l1.138 0.081 54.809-762.96c0.294 0.092 0.587 0.191 0.876 0.302 8.237 3.172 16.485 4.941 25.215 5.013zm-376 1.229c6.947-1.946 13.69-4.711 19.623-9.186 9.47-7.142 17.294-15.615 23.228-25.938 2.987-5.197 4.116-5.353 8.122-0.609 5.326 6.307 12.081 10.782 18.934 14.79 18.022 10.539 37.727 12.21 58.145 9.683 7.427-0.919 14.876-1.812 22.377-1.963l-8.934 747.07c-2.926 3.611-4.085 8.018-2.363 13.37 0.913 2.837 0.882 5.882 1.989 8.798 1.68 4.427 1.572 9.411 1.275 14.369l-189.69-763.22c0.711-0.155 1.436-0.243 2.183-0.233 15.451 0.206 30.394-2.804 45.111-6.928zm-210.06 63.812c15.499-0.88 29.1-6.749 40.411-17.164 7.714-7.103 14.555-14.841 17.434-25.786 1.236-4.7 2.26-9.897 4.751-14.342 1.519-2.711 3.255-5.21 6.894-2.267 9.919 8.023 21.608 11.918 33.954 14.104 17.438 3.088 33.951-0.368 50.068-7.04 2.388-0.988 4.672-2.503 7.079-3.471l190.82 767.79-360.35-709.51c2.723-1.272 5.684-2.123 8.938-2.308zm-169.35 104.63c1.631 0.804 4.319 0.869 5.97-0.713 2.168-2.078 4.939-2.639 7.521-3.721 16.834-7.058 30.238-17.904 37.884-34.884 3.022-6.711 6.138-13.645 6.831-20.899 0.533-5.585 0.622-11.261 1.619-16.818 0.75-4.181 3.205-5.796 6.258-4.118 10.35 5.689 21.941 6.038 32.994 5.827 18.329-0.349 35.578-4.88 49.639-18.417 2.884-2.777 6.063-5.495 9.667-7.529l360.82 710.43-542.32-615.3c7.901 1.131 15.752 2.511 23.117 6.141zm532.93 809.34c-3.214 1.391-6.626 2.729-9.301 4.893-9.483 7.672-19.14 5.61-29.005 1.222-3.245-1.443-4.29-2.835-0.531-5.245 2.678-1.717 2.083-4.513-0.802-5.828-2.193-1-4.637-1.356-6.646-0.426-3.366 1.559-6.691 1.017-10.06 0.784-5.097-0.353-8.338-4.784-6.512-9.42 1.298-3.295 2.202-6.708 4.019-9.907 2.917-5.136 4.359-10.993 5.308-16.871 0.268-1.658-0.098-2.666-0.908-3.216l41.017-69.915c1.599 2.214 3.26 4.415 3.78 7.504 4.707 27.944 9.414 55.888 14.12 83.832-0.615 5.169 1.252 9.239 1.252 14.269-0.361 3.794-1.979 6.699-5.731 8.324zm104.13-54.223c0.019 1.823-0.23 4.487-1.395 5.336-4.612 3.361-3.617 8.211-4.111 12.677-0.248 2.245-0.26 4.46-0.82 6.725-1.863 7.542-3.364 15.173-5.002 22.77-0.186 0.863-0.356 1.729-0.534 2.593-1.214-0.478-1.662-1.49-1.777-2.675-0.438-4.5-0.876-8.999-1.262-13.503-0.015-0.17-0.029-0.342-0.044-0.513 0.193-1.354 0.299-2.736 0.299-4.143 0-16.069-13.027-29.096-29.096-29.096s-29.096 13.027-29.096 29.096c0 5.05 1.288 9.799 3.552 13.938-0.26 0.495-0.517 0.989-0.75 1.476-2.151 4.501-4.019-0.706-6.061-0.519-6.099 0.558-5.958-3.751-5.981-7.658-0.03-5.163-0.404-9.994-1.842-15.207-2.443-8.849-8.238-17.072-6.487-26.95 0.052-0.297-0.456-0.662-0.472-1.005-0.272-5.992-0.761-11.989-0.677-17.978 0.079-5.662 1.92-11.554-3.779-15.845-0.537-0.404-0.315-1.782-0.495-2.698-2.208-11.23-1.004-22.699-2.891-34.058-2.369-14.259-2.68-28.858-3.97-43.301-0.334-3.742-0.665-7.543-1.606-11.159-1.378-5.292-0.829-6.83 4.535-6.349 9.635 0.863 19.286 0.435 28.947 1.182 16.354 1.265 32.845 0.665 49.266 1.226 3.139 0.107 6.001-1.548 8.935-0.914 9.636 2.084 19.397 2.225 29.167 2.29 1.851 0.012 3.037 0.898 4.226 1.926-0.016 0.166-0.038 0.331-0.038 0.5v6.404c-0.177 0.396-0.32 0.839-0.411 1.352-1.868 10.57-3.674 21.152-5.505 31.729-3.024 17.474-6.388 34.897-8.961 52.437-1.954 13.3-6.004 26.296-5.864 39.914zm73.963 58.789c-2.854 4.146-5.611 8.15-10.935 9.703-7.232 2.109-14.621 3.801-21.735 6.046-7.816 2.466-13.214 0.138-18.756-4.43-2.685-2.213-5.255-4.879-8.363-6.187-3.762-1.583-6.212-4.41-8.112-7.413-1.284-2.029-4.363-4.285-3.315-6.608 1.846-4.093 1.098-8.57 2.79-12.531 3.272-7.663 3.223-16.104 5.864-23.96 2.888-8.589 0.9-17.79 3.501-26.426 2.793-9.271 9.158-17.227 10.046-27.112 0.218-2.43 0.064-4.888-0.422-7.279l45.187 79.799c-1.182 3.465-1.998 7.19-0.176 10.286 2.122 3.607 1.712 7.983 4.497 11.287 0.807 0.954 1.092 3.136-0.071 4.825zm-51.924-249.97c-6.944-4.482-15.085-6.711-23.173-8.416-22.785-4.805-45.828-5.434-69.109-5.109-9.109 0.127-32.821 3.105-43.602 12.595l8.905-744.71c2.899 4e-3 5.806 0.127 8.723 0.423 2.862 0.291 5.212 1.863 8.181 1.767 13.553-0.441 26.919-2.602 39.373-7.608 11.753-4.724 23.256-10.5 31.558-20.929 4.308-5.412 8.377-5.018 12.628 0.547 4.852 6.353 10.92 11.401 17.52 15.722 19.176 12.556 40.822 15.855 63.156 16.164 4.574 0.064 9.408-0.655 13.806 0.092l-54.341 756.45c-2.118-6.965-8.183-13.475-13.625-16.987zm23.008 29.089l403.94-667.05c0.43 0.555 0.844 1.138 1.23 1.771 4.244 6.963 11.274 10.872 18.099 14.135 19.385 9.268 39.566 10.207 59.979 3.112 5.643-1.962 7.116-1.21 7.97 4.592 0.661 4.487 0.933 9.03 1.521 13.53 1.979 15.15 6.911 28.953 17.937 40.118 7.73 7.827 16.694 13.357 26.522 18.444 0.278 0.144 0.543 0.265 0.814 0.395l-538.02 570.96z"/>
</svg>